<svg width="28" height="24" viewBox="0 0 28 24" fill="none" xmlns="http://www.w3.org/2000/svg">
<g clip-path="url(#clip0_2_25)">
<path d="M20.6667 1.71417C22.0936 1.71417 23.4613 2.41488 24.5167 3.68774C25.0756 4.36857 25.5086 5.14273 25.7955 5.97417C26.1173 6.89531 26.2801 7.86399 26.2769 8.83917C26.2769 10.3927 25.3077 12.3101 23.4769 14.387C22.5492 15.4338 21.5312 16.3978 20.4346 17.2681L15.7231 20.6501V15.9642H7.33331C5.90638 15.9642 4.53869 15.2635 3.48331 13.9906C2.92436 13.3098 2.49136 12.5356 2.20446 11.7042C1.56212 9.84689 1.56212 7.82931 2.20446 5.97203C2.49136 5.14059 2.92436 4.36643 3.48331 3.6856C4.53869 2.41274 5.90638 1.71203 7.33331 1.71203H20.6667M20.6667 -0.0022583H7.33331C3.30023 -0.000115444 0 3.97756 0 8.83917C0 13.7008 3.30023 17.6785 7.33331 17.6785H14V23.9999L21.4668 18.6427C21.4668 18.6427 28 13.7008 28 8.83917C28 3.97756 24.6998 -0.000114986 20.6667 -0.000114986V-0.0022583Z" fill="#676767"/>
</g>
<defs>
<clipPath id="clip0_2_25">
<rect width="28" height="24" fill="white"/>
</clipPath>
</defs>
</svg>
